<svg width="46" height="46" fill="currentColor" viewBox="0 0 24 24" xmlns="http://www.w3.org/2000/svg">
  <path d="M12.473 2.496a1.2 1.2 0 0 0-.946 0l-8.4 3.6a1.2 1.2 0 0 0 0 2.208L6.3 9.661c.118-.133.264-.238.427-.308l4.8-2.057a1.2 1.2 0 1 1 .946 2.206L9.2 10.906l2.328.997a1.2 1.2 0 0 0 .945 0l8.4-3.6a1.2 1.2 0 0 0 0-2.206l-8.4-3.6v-.001Zm-8.501 8.78L6 12.144v4.922a10.76 10.76 0 0 0-1.26-.208 1.2 1.2 0 0 1-1.068-1.068 13.338 13.338 0 0 1 .3-4.515v.001Zm7.188 8.612a10.831 10.831 0 0 0-2.76-1.966v-4.748l2.182.936a3.6 3.6 0 0 0 2.836 0l6.61-2.834c.358 1.477.46 3.004.3 4.515a1.2 1.2 0 0 1-1.068 1.068 10.76 10.76 0 0 0-6.42 3.029 1.2 1.2 0 0 1-1.68 0ZM7.2 21.6a1.2 1.2 0 0 0 1.2-1.2v-2.478a10.72 10.72 0 0 0-2.4-.854V20.4a1.2 1.2 0 0 0 1.2 1.2Z"></path>
</svg>