<svg width="46" height="46" fill="currentColor" viewBox="0 0 24 24" xmlns="http://www.w3.org/2000/svg">
  <path d="M6 9.6V4.8v4.8Zm0-4.8h5.053H6Zm0 0 5.053 4.8L6 4.8Zm15.158 4.8V4.8v4.8Zm0-4.8h-5.053 5.053Zm0 0-5.053 4.8 5.053-4.8ZM6 14.4v4.8-4.8Zm0 4.8h5.053H6Zm0 0 5.053-4.8L6 19.2Zm15.158 0-5.053-4.8 5.053 4.8Zm0 0v-4.8 4.8Zm0 0h-5.053Z"></path>
  <path fill-rule="evenodd" d="m7.697 6 2.751 2.751a1.2 1.2 0 1 1-1.697 1.697L6 7.698V9.6a1.2 1.2 0 0 1-2.4 0V4.8a1.197 1.197 0 0 1 1.2-1.2h4.8a1.2 1.2 0 0 1 0 2.4H7.697ZM14.4 6a1.2 1.2 0 0 1 0-2.4h4.8a1.197 1.197 0 0 1 .846.349l.005.005a1.197 1.197 0 0 1 .349.842V9.6a1.2 1.2 0 0 1-2.4 0V7.697l-2.752 2.751a1.2 1.2 0 1 1-1.696-1.697L16.303 6H14.4ZM3.6 14.4a1.2 1.2 0 0 1 2.4 0v1.903l2.751-2.752a1.2 1.2 0 1 1 1.697 1.697L7.698 18H9.6a1.2 1.2 0 0 1 0 2.4H4.796a1.197 1.197 0 0 1-.842-.349l-.005-.005A1.197 1.197 0 0 1 3.6 19.2v-4.8Z" clip-rule="evenodd"></path>
  <path d="M14.4 20.4a1.2 1.2 0 0 1 0-2.4h1.903l-2.752-2.752a1.2 1.2 0 1 1 1.697-1.696L18 16.303V14.4a1.2 1.2 0 0 1 2.4 0v4.804a1.197 1.197 0 0 1-.349.842l-.005.005a1.198 1.198 0 0 1-.846.349h-4.8Z"></path>
</svg>