<svg width="46" height="46" fill="currentColor" viewBox="0 0 24 24" xmlns="http://www.w3.org/2000/svg">
  <path fill-rule="evenodd" d="M8.048 5.855A3.6 3.6 0 0 1 10.594 4.8H18a3.6 3.6 0 0 1 3.6 3.6v7.2a3.6 3.6 0 0 1-3.6 3.6h-7.406a3.6 3.6 0 0 1-2.544-1.055l-5.298-5.297a1.2 1.2 0 0 1 0-1.696l5.296-5.297Zm4.8 2.897a1.2 1.2 0 0 0-1.696 1.696L12.703 12l-1.551 1.552a1.2 1.2 0 1 0 1.696 1.696l1.552-1.551 1.552 1.551a1.2 1.2 0 0 0 1.696-1.696L16.097 12l1.551-1.552a1.2 1.2 0 0 0-1.696-1.696L14.4 10.303l-1.552-1.551Z" clip-rule="evenodd"></path>
</svg>