<svg width="46" height="46" fill="currentColor" viewBox="0 0 24 24" xmlns="http://www.w3.org/2000/svg">
  <path fill-rule="evenodd" d="M8.4 2.4a1.2 1.2 0 0 0-.848 2.048l.848.849v4.51a1.2 1.2 0 0 1-.352.848l-4.8 4.8C.98 17.723 2.588 21.6 5.794 21.6h12.411c3.208 0 4.815-3.877 2.547-6.145l-4.8-4.8a1.2 1.2 0 0 1-.352-.849v-4.51l.848-.848A1.2 1.2 0 0 0 15.6 2.4H8.4Zm2.4 7.406V4.8h2.4v5.006a3.6 3.6 0 0 0 1.055 2.544l1.232 1.234a4.8 4.8 0 0 0-2.605.122l-.564.188a4.8 4.8 0 0 1-3.036 0l-.676-.225a2.336 2.336 0 0 0-.136-.042l1.275-1.275A3.6 3.6 0 0 0 10.8 9.806Z" clip-rule="evenodd"></path>
</svg>