<svg width="46" height="46" fill="currentColor" viewBox="0 0 24 24" xmlns="http://www.w3.org/2000/svg">
  <path fill-rule="evenodd" d="M7.2 7.2V6a3.6 3.6 0 0 1 3.6-3.6h2.4A3.6 3.6 0 0 1 16.8 6v1.2h2.4a2.4 2.4 0 0 1 2.4 2.4v4.284A27.542 27.542 0 0 1 12 15.6a27.542 27.542 0 0 1-9.6-1.716V9.6a2.4 2.4 0 0 1 2.4-2.4h2.4ZM9.6 6a1.2 1.2 0 0 1 1.2-1.2h2.4A1.2 1.2 0 0 1 14.4 6v1.2H9.6V6Zm1.2 6a1.2 1.2 0 0 1 1.2-1.2h.012a1.2 1.2 0 1 1 0 2.4H12a1.2 1.2 0 0 1-1.2-1.2Z" clip-rule="evenodd"></path>
  <path d="M2.4 16.43v2.77a2.4 2.4 0 0 0 2.4 2.4h14.4a2.4 2.4 0 0 0 2.4-2.4v-2.77A29.97 29.97 0 0 1 12 18c-3.355 0-6.584-.552-9.6-1.57Z"></path>
</svg>