<svg width="46" height="46" fill="currentColor" viewBox="0 0 24 24" xmlns="http://www.w3.org/2000/svg">
  <path fill-rule="evenodd" d="M7.2 3.6a1.2 1.2 0 0 1 1.2-1.2h.012a1.2 1.2 0 1 1 0 2.4H8.4a1.2 1.2 0 0 1-1.2-1.2Zm2.4 3.6a1.2 1.2 0 1 0-2.4 0v1.2a2.4 2.4 0 0 0-2.4 2.4V12a2.4 2.4 0 0 0-2.4 2.4v.82c.45.126.877.322 1.266.582a2.045 2.045 0 0 0 2.268 0 4.444 4.444 0 0 1 4.932 0 2.045 2.045 0 0 0 2.268 0 4.444 4.444 0 0 1 4.932 0 2.045 2.045 0 0 0 2.268 0c.389-.26.816-.456 1.266-.582v-.82a2.4 2.4 0 0 0-2.4-2.4v-1.2a2.4 2.4 0 0 0-2.4-2.4V7.2a1.2 1.2 0 1 0-2.4 0v1.2h-1.2V7.2a1.2 1.2 0 1 0-2.4 0v1.2H9.6V7.2Zm12 10.642a4.444 4.444 0 0 1-4.866-.044 2.045 2.045 0 0 0-2.268 0 4.445 4.445 0 0 1-4.932 0 2.045 2.045 0 0 0-2.268 0 4.444 4.444 0 0 1-4.866.044V20.4a1.2 1.2 0 0 0 1.2 1.2h16.8a1.2 1.2 0 0 0 1.2-1.2v-2.558ZM10.8 3.6A1.2 1.2 0 0 1 12 2.4h.012a1.2 1.2 0 1 1 0 2.4H12a1.2 1.2 0 0 1-1.2-1.2Zm3.6 0a1.2 1.2 0 0 1 1.2-1.2h.012a1.2 1.2 0 1 1 0 2.4H15.6a1.2 1.2 0 0 1-1.2-1.2Z" clip-rule="evenodd"></path>
</svg>