<svg width="46" height="46" fill="currentColor" viewBox="0 0 24 24" xmlns="http://www.w3.org/2000/svg">
  <path fill-rule="evenodd" d="M7.2 2.4a2.4 2.4 0 0 0-2.4 2.4v14.4a2.4 2.4 0 0 0 2.4 2.4h9.6a2.4 2.4 0 0 0 2.4-2.4V4.8a2.4 2.4 0 0 0-2.4-2.4H7.2Zm1.2 2.4a1.2 1.2 0 1 0 0 2.4h7.2a1.2 1.2 0 1 0 0-2.4H8.4Zm7.2 8.4a1.2 1.2 0 0 1 1.2 1.2V18a1.2 1.2 0 1 1-2.4 0v-3.6a1.2 1.2 0 0 1 1.2-1.2ZM12 16.8a1.2 1.2 0 1 0 0 2.4h.012a1.2 1.2 0 1 0 0-2.4H12ZM7.2 18a1.2 1.2 0 0 1 1.2-1.2h.012a1.2 1.2 0 1 1 0 2.4H8.4A1.2 1.2 0 0 1 7.2 18Zm1.2-4.8a1.2 1.2 0 1 0 0 2.4h.012a1.2 1.2 0 1 0 0-2.4H8.4Zm2.4 1.2a1.2 1.2 0 0 1 1.2-1.2h.012a1.2 1.2 0 1 1 0 2.4H12a1.2 1.2 0 0 1-1.2-1.2Zm4.8-4.8a1.2 1.2 0 1 0 0 2.4h.012a1.2 1.2 0 1 0 0-2.4H15.6Zm-4.8 1.2A1.2 1.2 0 0 1 12 9.6h.012a1.2 1.2 0 0 1 0 2.4H12a1.2 1.2 0 0 1-1.2-1.2ZM8.4 9.6a1.2 1.2 0 1 0 0 2.4h.012a1.2 1.2 0 1 0 0-2.4H8.4Z" clip-rule="evenodd"></path>
</svg>