<svg width="46" height="46" fill="currentColor" viewBox="0 0 24 24" xmlns="http://www.w3.org/2000/svg">
  <path fill-rule="evenodd" d="M12.352 18.848a1.2 1.2 0 0 1 0-1.696L17.503 12l-5.151-5.152a1.2 1.2 0 1 1 1.696-1.696l6 6a1.2 1.2 0 0 1 0 1.696l-6 6a1.2 1.2 0 0 1-1.696 0Z" clip-rule="evenodd"></path>
  <path fill-rule="evenodd" d="M5.152 18.848a1.2 1.2 0 0 1 0-1.696L10.303 12 5.152 6.848a1.2 1.2 0 0 1 1.696-1.696l6 6a1.2 1.2 0 0 1 0 1.696l-6 6a1.2 1.2 0 0 1-1.696 0Z" clip-rule="evenodd"></path>
</svg>