<svg width="46" height="46" fill="currentColor" viewBox="0 0 24 24" xmlns="http://www.w3.org/2000/svg">
  <path d="M15.6 8.4H8.4v7.2h7.2V8.4Z"></path>
  <path fill-rule="evenodd" d="M8.4 2.4a1.2 1.2 0 0 1 2.4 0v1.2h2.4V2.4a1.2 1.2 0 1 1 2.4 0v1.2H18A2.4 2.4 0 0 1 20.4 6v2.4h1.2a1.2 1.2 0 1 1 0 2.4h-1.2v2.4h1.2a1.2 1.2 0 1 1 0 2.4h-1.2V18a2.4 2.4 0 0 1-2.4 2.4h-2.4v1.2a1.2 1.2 0 1 1-2.4 0v-1.2h-2.4v1.2a1.2 1.2 0 1 1-2.4 0v-1.2H6A2.4 2.4 0 0 1 3.6 18v-2.4H2.4a1.2 1.2 0 1 1 0-2.4h1.2v-2.4H2.4a1.2 1.2 0 1 1 0-2.4h1.2V6A2.4 2.4 0 0 1 6 3.6h2.4V2.4ZM6 6h12v12H6V6Z" clip-rule="evenodd"></path>
</svg>