<svg width="46" height="46" fill="currentColor" viewBox="0 0 24 24" xmlns="http://www.w3.org/2000/svg">
  <path d="M10.8 2.4a1.2 1.2 0 1 0 0 2.4h2.4a1.2 1.2 0 1 0 0-2.4h-2.4Z"></path>
  <path fill-rule="evenodd" d="M4.8 6a2.4 2.4 0 0 1 2.4-2.4 3.6 3.6 0 0 0 3.6 3.6h2.4a3.6 3.6 0 0 0 3.6-3.6A2.4 2.4 0 0 1 19.2 6v13.2a2.4 2.4 0 0 1-2.4 2.4H7.2a2.4 2.4 0 0 1-2.4-2.4V6Zm11.648 6.848a1.2 1.2 0 0 0-1.696-1.696L10.8 15.103l-1.552-1.551a1.2 1.2 0 0 0-1.696 1.696l2.4 2.4a1.2 1.2 0 0 0 1.696 0l4.8-4.8Z" clip-rule="evenodd"></path>
</svg>