<svg width="46" height="46" fill="currentColor" viewBox="0 0 24 24" xmlns="http://www.w3.org/2000/svg">
  <path d="M9.6 2.4a1.2 1.2 0 0 0 0 2.4H12a1.2 1.2 0 1 0 0-2.4H9.6Z"></path>
  <path d="M3.6 6A2.4 2.4 0 0 1 6 3.6a3.6 3.6 0 0 0 3.6 3.6H12a3.6 3.6 0 0 0 3.6-3.6A2.4 2.4 0 0 1 18 6v7.2h-5.503l1.551-1.552a1.2 1.2 0 0 0-1.696-1.696l-3.6 3.6a1.2 1.2 0 0 0 0 1.696l3.6 3.6a1.2 1.2 0 0 0 1.696-1.696L12.497 15.6H18v3.6a2.4 2.4 0 0 1-2.4 2.4H6a2.4 2.4 0 0 1-2.4-2.4V6ZM18 13.2h2.4a1.2 1.2 0 1 1 0 2.4H18v-2.4Z"></path>
</svg>