<svg width="46" height="46" fill="currentColor" viewBox="0 0 24 24" xmlns="http://www.w3.org/2000/svg">
  <path fill-rule="evenodd" d="M13.788 3.804c-.456-1.872-3.12-1.872-3.576 0a1.839 1.839 0 0 1-2.743 1.138c-1.647-1.004-3.53.88-2.527 2.527a1.84 1.84 0 0 1-1.137 2.744c-1.873.455-1.873 3.12 0 3.574a1.838 1.838 0 0 1 1.137 2.744c-1.004 1.647.88 3.53 2.527 2.527a1.839 1.839 0 0 1 2.744 1.137c.455 1.873 3.12 1.873 3.574 0a1.84 1.84 0 0 1 2.744-1.137c1.647 1.004 3.53-.88 2.527-2.527a1.839 1.839 0 0 1 1.137-2.744c1.873-.455 1.873-3.12 0-3.574a1.838 1.838 0 0 1-1.137-2.744c1.004-1.647-.88-3.53-2.527-2.527a1.838 1.838 0 0 1-2.744-1.137l.001-.001ZM12 15.6a3.6 3.6 0 1 0 0-7.2 3.6 3.6 0 0 0 0 7.2Z" clip-rule="evenodd"></path>
</svg>