<svg width="46" height="46" fill="currentColor" viewBox="0 0 24 24" xmlns="http://www.w3.org/2000/svg">
  <path d="M13.2 20.4a1.2 1.2 0 0 0 1.736 1.073l4.8-2.4A1.2 1.2 0 0 0 20.4 18v-6.917a1.2 1.2 0 0 0-1.736-1.073l-4.8 2.4a1.2 1.2 0 0 0-.664 1.073V20.4Zm5.053-12.869a1.2 1.2 0 0 0 0-2.145l-5.717-2.859a1.2 1.2 0 0 0-1.072 0L5.747 5.386a1.2 1.2 0 0 0 0 2.145l5.717 2.859a1.2 1.2 0 0 0 1.072 0l5.717-2.859Zm-12.917 2.48A1.2 1.2 0 0 0 3.6 11.082V18a1.2 1.2 0 0 0 .664 1.073l4.8 2.4A1.2 1.2 0 0 0 10.8 20.4v-6.917a1.2 1.2 0 0 0-.664-1.073l-4.8-2.4Z"></path>
</svg>