<svg width="46" height="46" fill="currentColor" viewBox="0 0 24 24" xmlns="http://www.w3.org/2000/svg">
  <path fill-rule="evenodd" d="M11.405 1.358a1.2 1.2 0 0 1 1.19 0l2.1 1.2a1.2 1.2 0 1 1-1.19 2.084L12 3.782l-1.505.86a1.2 1.2 0 1 1-1.19-2.084l2.1-1.2ZM6.742 5.405a1.2 1.2 0 0 1-.447 1.637L6.02 7.2l.276.158a1.2 1.2 0 1 1-1.19 2.084L4.8 9.268V9.6a1.2 1.2 0 1 1-2.4 0V7.2a1.195 1.195 0 0 1 .624-1.054l2.08-1.188a1.2 1.2 0 0 1 1.638.447Zm10.516 0a1.2 1.2 0 0 1 1.637-.447l2.08 1.188A1.202 1.202 0 0 1 21.6 7.2v2.4a1.2 1.2 0 1 1-2.4 0v-.332l-.305.174a1.2 1.2 0 1 1-1.19-2.084l.276-.158-.276-.158a1.2 1.2 0 0 1-.447-1.637Zm-8.4 4.8a1.2 1.2 0 0 1 1.637-.447l1.505.86 1.505-.86a1.2 1.2 0 1 1 1.19 2.084l-1.495.854V14.4a1.2 1.2 0 1 1-2.4 0v-1.704l-1.495-.854a1.2 1.2 0 0 1-.447-1.637ZM3.6 13.2a1.2 1.2 0 0 1 1.2 1.2v1.704l1.495.854a1.2 1.2 0 1 1-1.19 2.084l-2.1-1.2A1.2 1.2 0 0 1 2.4 16.8v-2.4a1.2 1.2 0 0 1 1.2-1.2Zm16.8 0a1.2 1.2 0 0 1 1.2 1.2v2.4a1.2 1.2 0 0 1-.605 1.042l-2.1 1.2a1.2 1.2 0 1 1-1.19-2.084l1.495-.854V14.4a1.2 1.2 0 0 1 1.2-1.2ZM8.858 19.805a1.2 1.2 0 0 1 1.637-.447l.305.174V19.2a1.2 1.2 0 1 1 2.4 0v.332l.305-.174a1.2 1.2 0 1 1 1.19 2.084l-2.082 1.19a1.194 1.194 0 0 1-1.226 0l-2.082-1.19a1.2 1.2 0 0 1-.447-1.637Z" clip-rule="evenodd"></path>
</svg>