<svg width="46" height="46" fill="currentColor" viewBox="0 0 24 24" xmlns="http://www.w3.org/2000/svg">
  <path d="M10.12 8.902c.186-.124.415-.236.68-.32v2.037a2.766 2.766 0 0 1-.68-.32c-.436-.291-.52-.562-.52-.699 0-.137.084-.408.52-.698Zm3.08 6.517V13.38c.264.085.494.197.68.32.437.292.52.562.52.699 0 .137-.084.408-.52.698-.21.138-.44.245-.68.32Z"></path>
  <path fill-rule="evenodd" d="M12 21.6a9.6 9.6 0 1 0 0-19.2 9.6 9.6 0 0 0 0 19.2ZM13.2 6a1.2 1.2 0 1 0-2.4 0v.11c-.717.128-1.4.398-2.011.795C7.922 7.48 7.2 8.41 7.2 9.6c0 1.188.722 2.118 1.589 2.695a5.441 5.441 0 0 0 2.011.795v2.329c-.47-.153-.816-.38-1.012-.605a1.2 1.2 0 1 0-1.812 1.572c.675.779 1.696 1.291 2.824 1.504V18a1.2 1.2 0 1 0 2.4 0v-.11a5.441 5.441 0 0 0 2.011-.795c.867-.576 1.589-1.506 1.589-2.695 0-1.188-.722-2.118-1.589-2.695a5.443 5.443 0 0 0-2.011-.795V8.581c.47.153.816.38 1.012.605a1.2 1.2 0 1 0 1.813-1.572c-.676-.779-1.696-1.291-2.825-1.504V6Z" clip-rule="evenodd"></path>
</svg>