<svg width="46" height="46" fill="currentColor" viewBox="0 0 24 24" xmlns="http://www.w3.org/2000/svg">
  <path fill-rule="evenodd" d="M12 21.6a9.6 9.6 0 1 0 0-19.2 9.6 9.6 0 0 0 0 19.2ZM10.483 8.375C11.05 7.432 11.635 7.2 12 7.2s.95.232 1.517 1.175a1.2 1.2 0 1 0 2.058-1.235C14.735 5.74 13.478 4.8 12 4.8c-1.478 0-2.735.94-3.575 2.34-.342.57-.608 1.2-.804 1.86H7.2a1.2 1.2 0 1 0 0 2.4h.016c-.022.4-.022.8 0 1.2H7.2a1.2 1.2 0 0 0 0 2.4h.421c.196.66.462 1.29.804 1.86.84 1.4 2.097 2.34 3.575 2.34 1.478 0 2.735-.94 3.575-2.34a1.2 1.2 0 1 0-2.058-1.235C12.95 16.568 12.365 16.8 12 16.8s-.95-.232-1.517-1.175a5.16 5.16 0 0 1-.317-.625H12a1.2 1.2 0 1 0 0-2.4H9.62c-.027-.4-.027-.8 0-1.2H12A1.2 1.2 0 1 0 12 9h-1.834c.096-.222.2-.432.317-.625Z" clip-rule="evenodd"></path>
</svg>