<svg width="46" height="46" fill="currentColor" viewBox="0 0 24 24" xmlns="http://www.w3.org/2000/svg">
  <path fill-rule="evenodd" d="M12 21.6a9.6 9.6 0 1 0 0-19.2 9.6 9.6 0 0 0 0 19.2ZM9.43 6.582a1.2 1.2 0 0 0-2.058 1.236L9.16 10.8H8.4a1.2 1.2 0 0 0 0 2.4h2.2l.2.332v.868H8.4a1.2 1.2 0 0 0 0 2.4h2.4V18a1.2 1.2 0 1 0 2.4 0v-1.2h2.4a1.2 1.2 0 1 0 0-2.4h-2.4v-.868l.2-.332h2.2a1.2 1.2 0 1 0 0-2.4h-.76l1.79-2.983a1.2 1.2 0 0 0-2.06-1.235L12.04 10.8h-.08L9.43 6.582Z" clip-rule="evenodd"></path>
</svg>