<svg width="46" height="46" fill="currentColor" viewBox="0 0 24 24" xmlns="http://www.w3.org/2000/svg">
  <path fill-rule="evenodd" d="M12 21.6a9.6 9.6 0 1 0 0-19.2 9.6 9.6 0 0 0 0 19.2ZM8.4 6a1.2 1.2 0 1 0 0 2.4h1.2a2.4 2.4 0 0 1 2.078 1.2H8.4a1.2 1.2 0 1 0 0 2.4h3.278A2.4 2.4 0 0 1 9.6 13.2H8.4a1.2 1.2 0 0 0-.848 2.048l3.6 3.6a1.2 1.2 0 0 0 1.696-1.696l-1.78-1.781A4.81 4.81 0 0 0 14.249 12H15.6a1.2 1.2 0 1 0 0-2.4h-1.351a4.773 4.773 0 0 0-.492-1.2H15.6a1.2 1.2 0 1 0 0-2.4H8.4Z" clip-rule="evenodd"></path>
</svg>