<svg width="46" height="46" fill="currentColor" viewBox="0 0 24 24" xmlns="http://www.w3.org/2000/svg">
  <path d="M3.6 14.4V18c0 1.988 3.76 3.6 8.4 3.6 4.64 0 8.4-1.612 8.4-3.6v-3.6c0 1.988-3.76 3.6-8.4 3.6-4.64 0-8.4-1.612-8.4-3.6Z"></path>
  <path d="M3.6 8.4V12c0 1.988 3.76 3.6 8.4 3.6 4.64 0 8.4-1.612 8.4-3.6V8.4c0 1.988-3.76 3.6-8.4 3.6-4.64 0-8.4-1.612-8.4-3.6Z"></path>
  <path d="M20.4 6c0 1.988-3.76 3.6-8.4 3.6-4.64 0-8.4-1.612-8.4-3.6S7.36 2.4 12 2.4c4.64 0 8.4 1.612 8.4 3.6Z"></path>
</svg>