<svg width="46" height="46" fill="currentColor" viewBox="0 0 24 24" xmlns="http://www.w3.org/2000/svg">
  <path d="M4.8 4.8a2.4 2.4 0 0 1 2.4-2.4h5.503a2.4 2.4 0 0 1 1.697.703L18.497 7.2a2.4 2.4 0 0 1 .703 1.697V19.2a2.4 2.4 0 0 1-2.4 2.4h-1.834A7.2 7.2 0 0 0 4.8 11.434V4.8Z"></path>
  <path fill-rule="evenodd" d="M9.6 12a4.8 4.8 0 0 0-4.135 7.238L3.952 20.75a1.2 1.2 0 1 0 1.696 1.698l1.514-1.513A4.8 4.8 0 1 0 9.6 12Zm-2.4 4.8a2.4 2.4 0 1 1 4.8 0 2.4 2.4 0 0 1-4.8 0Z" clip-rule="evenodd"></path>
</svg>