<svg width="46" height="46" fill="currentColor" viewBox="0 0 24 24" xmlns="http://www.w3.org/2000/svg">
  <path fill-rule="evenodd" d="M7.2 2.4a2.4 2.4 0 0 0-2.4 2.4v14.4a2.4 2.4 0 0 0 2.4 2.4h9.6a2.4 2.4 0 0 0 2.4-2.4V8.897a2.4 2.4 0 0 0-.703-1.697L14.4 3.103a2.4 2.4 0 0 0-1.697-.703H7.2Zm2.4 12a1.2 1.2 0 0 0-2.4 0V18a1.2 1.2 0 0 0 2.4 0v-3.6Zm2.4-3.6a1.2 1.2 0 0 1 1.2 1.2v6a1.2 1.2 0 1 1-2.4 0v-6a1.2 1.2 0 0 1 1.2-1.2Zm4.8-1.2a1.2 1.2 0 1 0-2.4 0V18a1.2 1.2 0 1 0 2.4 0V9.6Z" clip-rule="evenodd"></path>
</svg>