<svg width="46" height="46" fill="currentColor" viewBox="0 0 24 24" xmlns="http://www.w3.org/2000/svg">
  <path fill-rule="evenodd" d="M4.448 2.752a1.2 1.2 0 0 0-1.696 1.696l16.8 16.8a1.2 1.2 0 0 0 1.696-1.696l-1.767-1.768A12.018 12.018 0 0 0 23.45 12C21.92 7.132 17.373 3.6 12 3.6a11.95 11.95 0 0 0-5.414 1.289L4.45 2.752h-.002Zm5.114 5.112 1.816 1.818a2.404 2.404 0 0 1 2.94 2.94l1.817 1.816a4.8 4.8 0 0 0-6.573-6.573v-.001Z" clip-rule="evenodd"></path>
  <path d="M14.945 20.036 11.7 16.79a4.8 4.8 0 0 1-4.49-4.489L2.802 7.894A11.976 11.976 0 0 0 .55 12c1.528 4.868 6.078 8.4 11.45 8.4 1.016 0 2.003-.126 2.945-.364Z"></path>
</svg>