<svg width="46" height="46" fill="currentColor" viewBox="0 0 24 24" xmlns="http://www.w3.org/2000/svg">
  <path fill-rule="evenodd" d="M7.95 3.186A10.8 10.8 0 0 1 22.8 13.2a1.2 1.2 0 1 1-2.4 0A8.4 8.4 0 0 0 8.85 5.41a1.2 1.2 0 1 1-.9-2.224ZM5.594 5.951A1.2 1.2 0 0 1 5.7 7.644 8.364 8.364 0 0 0 3.6 13.2a1.2 1.2 0 0 1-2.4 0 10.764 10.764 0 0 1 2.7-7.144 1.2 1.2 0 0 1 1.694-.105Z" clip-rule="evenodd"></path>
  <path fill-rule="evenodd" d="M6 13.2a6 6 0 0 1 12 0 1.2 1.2 0 1 1-2.4 0 3.6 3.6 0 0 0-7.2 0c0 2.012-.414 3.931-1.162 5.675a1.2 1.2 0 0 1-2.205-.947c.64-1.494.97-3.103.967-4.728Zm10.705 2.414a1.201 1.201 0 0 1 .997 1.374 23.828 23.828 0 0 1-.654 2.924 1.2 1.2 0 1 1-2.304-.67 21.65 21.65 0 0 0 .588-2.63 1.2 1.2 0 0 1 1.373-.996v-.002Z" clip-rule="evenodd"></path>
  <path fill-rule="evenodd" d="M12 12a1.2 1.2 0 0 1 1.2 1.2c0 2.683-.552 5.242-1.548 7.565a1.2 1.2 0 1 1-2.206-.947A16.742 16.742 0 0 0 10.8 13.2 1.2 1.2 0 0 1 12 12Z" clip-rule="evenodd"></path>
</svg>