<svg width="46" height="46" fill="currentColor" viewBox="0 0 24 24" xmlns="http://www.w3.org/2000/svg">
  <path fill-rule="evenodd" d="M14.108 2.44a1.2 1.2 0 0 1 .766.624c.58 1.16 1.013 1.864 1.448 2.436.442.578.908 1.05 1.618 1.76a8.382 8.382 0 0 1 2.46 5.94 8.402 8.402 0 0 1-16.8 0c0-2.148.82-4.3 2.46-5.94a1.2 1.2 0 0 1 2.048.848c0 1.344.084 2.368.478 3.185.216.449.553.888 1.134 1.28a37.76 37.76 0 0 1 .737-4.295c.27-1.16.606-2.316 1.007-3.281.2-.484.427-.942.684-1.34.25-.386.57-.778.986-1.055a1.2 1.2 0 0 1 .974-.161Zm.437 15.705A3.598 3.598 0 0 1 8.4 15.6s1.055.6 3 .6c0-1.2.6-4.8 1.5-5.4.6 1.2.943 1.552 1.645 2.255A3.585 3.585 0 0 1 15.6 15.6c0 .922-.352 1.843-1.055 2.545Z" clip-rule="evenodd"></path>
</svg>