<svg width="46" height="46" fill="currentColor" viewBox="0 0 24 24" xmlns="http://www.w3.org/2000/svg">
  <path fill-rule="evenodd" d="M6 6a3.6 3.6 0 0 1 6-2.683A3.6 3.6 0 0 1 17.796 7.2H19.2a2.4 2.4 0 1 1 0 4.8h-6v-1.2a1.2 1.2 0 1 0-2.4 0V12h-6a2.4 2.4 0 0 1 0-4.8h1.404A3.615 3.615 0 0 1 6 6Zm4.8 1.2V6a1.2 1.2 0 1 0-1.2 1.2h1.2Zm3.6 0A1.2 1.2 0 1 0 13.2 6v1.2h1.2Z" clip-rule="evenodd"></path>
  <path d="M10.8 13.2H3.6v6A2.4 2.4 0 0 0 6 21.6h4.8v-8.4Zm2.4 8.4H18a2.4 2.4 0 0 0 2.4-2.4v-6h-7.2v8.4Z"></path>
</svg>