<svg width="46" height="46" fill="currentColor" viewBox="0 0 24 24" xmlns="http://www.w3.org/2000/svg">
  <path fill-rule="evenodd" d="M4.9 10.8h2.335c.107-1.855.46-3.564 1.004-4.942A7.205 7.205 0 0 0 4.9 10.8ZM12 2.4a9.6 9.6 0 1 0 0 19.2 9.6 9.6 0 0 0 0-19.2Zm0 2.4c-.091 0-.278.038-.558.314-.286.281-.596.748-.884 1.419-.467 1.088-.808 2.57-.92 4.267h4.724c-.112-1.697-.453-3.179-.92-4.267-.288-.672-.6-1.138-.884-1.419-.28-.276-.467-.314-.558-.314Zm4.765 6c-.107-1.855-.46-3.564-1.004-4.942A7.204 7.204 0 0 1 19.1 10.8h-2.336Zm-2.403 2.4H9.638c.112 1.697.453 3.179.92 4.267.288.672.6 1.138.884 1.419.28.276.467.314.558.314.091 0 .278-.038.558-.314.286-.281.598-.748.884-1.419.467-1.088.808-2.57.92-4.267Zm1.399 4.942c.545-1.377.897-3.087 1.004-4.942H19.1a7.204 7.204 0 0 1-3.34 4.942Zm-7.522 0c-.545-1.378-.897-3.087-1.003-4.942H4.9a7.205 7.205 0 0 0 3.34 4.942Z" clip-rule="evenodd"></path>
</svg>