<svg width="46" height="46" fill="currentColor" viewBox="0 0 24 24" xmlns="http://www.w3.org/2000/svg">
  <path fill-rule="evenodd" d="M11.092 3.636a1.2 1.2 0 0 1 .872 1.456L11.436 7.2h3.528l.672-2.692a1.2 1.2 0 1 1 2.328.584L17.436 7.2H20.4a1.2 1.2 0 1 1 0 2.4h-3.564l-1.2 4.8H18a1.2 1.2 0 1 1 0 2.4h-2.964l-.672 2.69a1.2 1.2 0 1 1-2.328-.582l.528-2.108H9.036l-.672 2.69a1.2 1.2 0 1 1-2.328-.582l.528-2.108H3.6a1.2 1.2 0 1 1 0-2.4h3.564l1.2-4.8H6a1.2 1.2 0 0 1 0-2.4h2.964l.672-2.692a1.2 1.2 0 0 1 1.456-.872ZM10.836 9.6l-1.2 4.8h3.526l1.2-4.8h-3.526Z" clip-rule="evenodd"></path>
</svg>