<svg width="46" height="46" fill="currentColor" viewBox="0 0 24 24" xmlns="http://www.w3.org/2000/svg">
  <path fill-rule="evenodd" d="M12 2.4a1.2 1.2 0 0 0-1.2 1.2v1.2a1.2 1.2 0 1 0 2.4 0V3.6A1.2 1.2 0 0 0 12 2.4ZM4.8 4.8h3.6a3.6 3.6 0 0 0 7.2 0h3.6a2.4 2.4 0 0 1 2.4 2.4V18a2.4 2.4 0 0 1-2.4 2.4H4.8A2.4 2.4 0 0 1 2.4 18V7.2a2.4 2.4 0 0 1 2.4-2.4Zm3 8.4a1.8 1.8 0 1 0 0-3.6 1.8 1.8 0 0 0 0 3.6Zm2.94 4.8a3 3 0 1 0-5.88 0h5.88Zm3.66-7.2a1.2 1.2 0 0 0 0 2.4H18a1.2 1.2 0 1 0 0-2.4h-3.6Zm-1.2 4.8a1.2 1.2 0 0 1 1.2-1.2h2.4a1.2 1.2 0 0 1 0 2.4h-2.4a1.2 1.2 0 0 1-1.2-1.2Z" clip-rule="evenodd"></path>
</svg>