<svg width="46" height="46" fill="currentColor" viewBox="0 0 24 24" xmlns="http://www.w3.org/2000/svg">
  <path fill-rule="evenodd" d="M12.595 2.558a1.2 1.2 0 0 0-1.19 0l-8.4 4.8A1.2 1.2 0 0 0 3.6 9.6V18a1.2 1.2 0 1 0 0 2.4h16.8a1.2 1.2 0 1 0 0-2.4V9.6a1.2 1.2 0 0 0 .595-2.242l-8.4-4.8ZM7.2 10.8A1.2 1.2 0 0 0 6 12v3.6a1.2 1.2 0 1 0 2.4 0V12a1.2 1.2 0 0 0-1.2-1.2Zm3.6 1.2a1.2 1.2 0 1 1 2.4 0v3.6a1.2 1.2 0 1 1-2.4 0V12Zm6-1.2a1.2 1.2 0 0 0-1.2 1.2v3.6a1.2 1.2 0 1 0 2.4 0V12a1.2 1.2 0 0 0-1.2-1.2Z" clip-rule="evenodd"></path>
</svg>