<svg width="46" height="46" fill="currentColor" viewBox="0 0 24 24" xmlns="http://www.w3.org/2000/svg">
  <path d="M13.2 3.6a1.2 1.2 0 1 0-2.4 0v1.2a1.2 1.2 0 1 0 2.4 0V3.6Zm5.588 3.308a1.2 1.2 0 0 0-1.696-1.696l-.849.848a1.2 1.2 0 0 0 1.697 1.697l.848-.849ZM21.6 12a1.2 1.2 0 0 1-1.2 1.2h-1.2a1.2 1.2 0 1 1 0-2.4h1.2a1.2 1.2 0 0 1 1.2 1.2ZM6.06 7.757A1.2 1.2 0 1 0 7.757 6.06l-.849-.848a1.2 1.2 0 0 0-1.696 1.696l.848.849ZM6 12a1.2 1.2 0 0 1-1.2 1.2H3.6a1.2 1.2 0 1 1 0-2.4h1.2A1.2 1.2 0 0 1 6 12Zm3.6 7.2V18h4.8v1.2a2.4 2.4 0 0 1-4.8 0Zm4.8-2.4c.018-.408.25-.775.572-1.03a4.8 4.8 0 1 0-5.944 0c.324.255.554.622.57 1.03h4.803-.001Z"></path>
</svg>