<svg width="46" height="46" fill="currentColor" viewBox="0 0 24 24" xmlns="http://www.w3.org/2000/svg">
  <path d="M2.4 3.6a1.2 1.2 0 0 1 1.2-1.2h2.584a1.2 1.2 0 0 1 1.183 1.003l.888 5.322a1.2 1.2 0 0 1-.648 1.272l-1.858.928a13.244 13.244 0 0 0 7.326 7.326l.929-1.858a1.2 1.2 0 0 1 1.27-.648l5.323.888a1.2 1.2 0 0 1 1.003 1.183V20.4a1.2 1.2 0 0 1-1.2 1.2H18C9.384 21.6 2.4 14.616 2.4 6V3.6Z"></path>
  <path d="M20.048 3.952a1.2 1.2 0 0 1 0 1.696L18.497 7.2l1.551 1.552a1.2 1.2 0 0 1-1.696 1.696L16.8 8.897l-1.552 1.551a1.199 1.199 0 1 1-1.696-1.696L15.103 7.2l-1.551-1.552a1.2 1.2 0 0 1 1.696-1.696L16.8 5.503l1.552-1.551a1.2 1.2 0 0 1 1.696 0Z"></path>
</svg>