<svg width="46" height="46" fill="currentColor" viewBox="0 0 24 24" xmlns="http://www.w3.org/2000/svg">
  <path d="M21.509 3.14a1.196 1.196 0 0 0-.258-.386l-.005-.005A1.197 1.197 0 0 0 20.4 2.4h-4.8a1.2 1.2 0 1 0 0 2.4h1.903l-3.951 3.952a1.2 1.2 0 0 0 1.696 1.696L19.2 6.497V8.4a1.2 1.2 0 1 0 2.4 0V3.6c0-.158-.03-.314-.091-.46Z"></path>
  <path d="M2.4 3.6a1.2 1.2 0 0 1 1.2-1.2h2.584a1.2 1.2 0 0 1 1.183 1.003l.888 5.322a1.2 1.2 0 0 1-.648 1.272l-1.858.928a13.244 13.244 0 0 0 7.326 7.326l.929-1.858a1.2 1.2 0 0 1 1.27-.648l5.323.888a1.2 1.2 0 0 1 1.003 1.183V20.4a1.2 1.2 0 0 1-1.2 1.2H18C9.384 21.6 2.4 14.616 2.4 6V3.6Z"></path>
</svg>