<svg width="46" height="46" fill="currentColor" viewBox="0 0 24 24" xmlns="http://www.w3.org/2000/svg">
  <path fill-rule="evenodd" d="M3.6 3.6a1.2 1.2 0 1 0 0 2.4v9.6A2.4 2.4 0 0 0 6 18h3.103l-1.551 1.552a1.2 1.2 0 1 0 1.696 1.696L12 18.497l2.752 2.751a1.2 1.2 0 0 0 1.696-1.696L14.897 18H18a2.4 2.4 0 0 0 2.4-2.4V6a1.2 1.2 0 1 0 0-2.4H3.6Zm13.2 4.8a1.2 1.2 0 1 0-2.4 0v4.8a1.2 1.2 0 1 0 2.4 0V8.4Zm-3.6 1.2a1.2 1.2 0 1 0-2.4 0v3.6a1.2 1.2 0 1 0 2.4 0V9.6Zm-3.6 1.2a1.2 1.2 0 1 0-2.4 0v2.4a1.2 1.2 0 0 0 2.4 0v-2.4Z" clip-rule="evenodd"></path>
</svg>