<svg width="46" height="46" fill="currentColor" viewBox="0 0 24 24" xmlns="http://www.w3.org/2000/svg">
  <path fill-rule="evenodd" d="M3.6 4.8a1.2 1.2 0 0 1 1.2-1.2h3.6a1.2 1.2 0 0 1 1.2 1.2v3.6a1.2 1.2 0 0 1-1.2 1.2H4.8a1.2 1.2 0 0 1-1.2-1.2V4.8ZM6 7.2V6h1.2v1.2H6Zm-2.4 8.4a1.2 1.2 0 0 1 1.2-1.2h3.6a1.2 1.2 0 0 1 1.2 1.2v3.6a1.2 1.2 0 0 1-1.2 1.2H4.8a1.2 1.2 0 0 1-1.2-1.2v-3.6ZM6 18v-1.2h1.2V18H6Zm9.6-14.4a1.2 1.2 0 0 0-1.2 1.2v3.6a1.2 1.2 0 0 0 1.2 1.2h3.6a1.2 1.2 0 0 0 1.2-1.2V4.8a1.2 1.2 0 0 0-1.2-1.2h-3.6ZM16.8 6v1.2H18V6h-1.2Z" clip-rule="evenodd"></path>
  <path d="M13.2 4.8a1.2 1.2 0 1 0-2.4 0V6a1.2 1.2 0 1 0 2.4 0V4.8ZM12 8.4a1.2 1.2 0 0 1 1.2 1.2v1.2h2.4a1.2 1.2 0 1 1 0 2.4H12a1.2 1.2 0 0 1-1.2-1.2V9.6A1.2 1.2 0 0 1 12 8.4Zm7.2 2.4a1.2 1.2 0 1 0 0 2.4 1.2 1.2 0 0 0 0-2.4Zm-8.4 4.8a1.2 1.2 0 0 1 1.2-1.2h1.2a1.2 1.2 0 1 1 0 2.4v2.4a1.2 1.2 0 1 1-2.4 0v-3.6Zm-2.4-2.4a1.2 1.2 0 0 0 0-2.4H4.8a1.2 1.2 0 1 0 0 2.4h3.6Zm12 2.4a1.2 1.2 0 0 1-1.2 1.2h-2.4a1.2 1.2 0 0 1 0-2.4h2.4a1.2 1.2 0 0 1 1.2 1.2Zm-1.2 4.8a1.2 1.2 0 0 0 0-2.4h-3.6a1.2 1.2 0 1 0 0 2.4h3.6Z"></path>
</svg>