<svg width="46" height="46" fill="currentColor" viewBox="0 0 24 24" xmlns="http://www.w3.org/2000/svg">
  <path fill-rule="evenodd" d="M4.8 2.4A1.2 1.2 0 0 1 6 3.6v2.521a8.402 8.402 0 0 1 13.921 3.08A1.2 1.2 0 1 1 17.66 10 6.002 6.002 0 0 0 7.2 8.4h3.6a1.2 1.2 0 1 1 0 2.4h-6a1.2 1.2 0 0 1-1.2-1.2v-6a1.2 1.2 0 0 1 1.2-1.2Zm.01 10.868A1.2 1.2 0 0 1 6.34 14a6.002 6.002 0 0 0 10.461 1.6H13.2a1.2 1.2 0 1 1 0-2.4h6a1.2 1.2 0 0 1 1.2 1.2v6a1.2 1.2 0 1 1-2.4 0v-2.521a8.402 8.402 0 0 1-13.921-3.08 1.2 1.2 0 0 1 .732-1.53H4.81Z" clip-rule="evenodd"></path>
</svg>