<svg width="46" height="46" fill="currentColor" viewBox="0 0 24 24" xmlns="http://www.w3.org/2000/svg">
  <path d="M11.648 8.752a1.2 1.2 0 0 0-1.696 1.696l3.6 3.6a1.2 1.2 0 0 0 1.696 0l3.6-3.6a1.2 1.2 0 0 0-1.696-1.696L15.6 10.303V6h3.6a2.4 2.4 0 0 1 2.4 2.4v6a2.4 2.4 0 0 1-2.4 2.4H9.6a2.4 2.4 0 0 1-2.4-2.4v-6A2.4 2.4 0 0 1 9.6 6h3.6v4.303l-1.552-1.551ZM13.2 3.6a1.2 1.2 0 1 1 2.4 0V6h-2.4V3.6Z"></path>
  <path d="M4.8 10.8a2.4 2.4 0 0 0-2.4 2.4v6a2.4 2.4 0 0 0 2.4 2.4h9.6a2.4 2.4 0 0 0 2.4-2.4h-12v-8.4Z"></path>
</svg>