<svg width="46" height="46" fill="currentColor" viewBox="0 0 24 24" xmlns="http://www.w3.org/2000/svg">
  <path fill-rule="evenodd" d="M12 2.4a1.2 1.2 0 0 1 1.2 1.2v1.588l4.745 1.898 1.919-.96a1.2 1.2 0 0 1 1.072 2.148l-1.48.74 2.086 6.503a1.2 1.2 0 0 1-.342 1.26A4.787 4.787 0 0 1 18 18a4.787 4.787 0 0 1-3.2-1.223 1.2 1.2 0 0 1-.342-1.26l2.058-6.419L13.2 7.772V19.2h2.4a1.2 1.2 0 0 1 0 2.4H8.4a1.2 1.2 0 1 1 0-2.4h2.4V7.772L7.484 9.098l2.058 6.42a1.2 1.2 0 0 1-.342 1.26A4.787 4.787 0 0 1 6 18a4.787 4.787 0 0 1-3.2-1.223 1.2 1.2 0 0 1-.342-1.26l2.085-6.504-1.48-.74a1.2 1.2 0 0 1 1.073-2.146l1.92.959L10.8 5.188V3.6A1.2 1.2 0 0 1 12 2.4Zm-6 9.929-.982 3.062c.3.135.632.209.982.209s.683-.074.982-.209L6 12.33Zm12 0-.982 3.062c.3.135.632.209.982.209s.683-.074.982-.209L18 12.33Z" clip-rule="evenodd"></path>
</svg>