<svg width="46" height="46" fill="currentColor" viewBox="0 0 24 24" xmlns="http://www.w3.org/2000/svg">
  <path fill-rule="evenodd" d="M6.6 2.4a4.2 4.2 0 1 0 1.998 7.896L10.302 12l-1.704 1.704a4.2 4.2 0 1 0 1.697 1.697l9.753-9.753a1.2 1.2 0 0 0-1.696-1.696L12 10.303 10.296 8.6A4.2 4.2 0 0 0 6.6 2.4ZM4.8 6.6a1.8 1.8 0 1 1 3.6 0 1.8 1.8 0 0 1-3.6 0Zm0 10.8a1.8 1.8 0 1 1 3.6 0 1.8 1.8 0 0 1-3.6 0Z" clip-rule="evenodd"></path>
  <path d="M15.394 13.697a1.2 1.2 0 0 0-1.697 1.697l4.655 4.656a1.2 1.2 0 0 0 1.696-1.698l-4.654-4.655Z"></path>
</svg>