<svg width="46" height="46" fill="currentColor" viewBox="0 0 24 24" xmlns="http://www.w3.org/2000/svg">
  <path fill-rule="evenodd" d="M6 2.4a1.2 1.2 0 0 1 1.2 1.2v1.2h1.2a1.2 1.2 0 1 1 0 2.4H7.2v1.2a1.2 1.2 0 0 1-2.4 0V7.2H3.6a1.2 1.2 0 1 1 0-2.4h1.2V3.6A1.2 1.2 0 0 1 6 2.4Zm0 12a1.2 1.2 0 0 1 1.2 1.2v1.2h1.2a1.2 1.2 0 0 1 0 2.4H7.2v1.2a1.2 1.2 0 0 1-2.4 0v-1.2H3.6a1.2 1.2 0 1 1 0-2.4h1.2v-1.2A1.2 1.2 0 0 1 6 14.4Zm8.4-12a1.2 1.2 0 0 1 1.16.893l1.415 5.347L21 10.96a1.2 1.2 0 0 1 0 2.08l-4.025 2.321-1.416 5.346a1.2 1.2 0 0 1-2.32 0l-1.414-5.347L7.8 13.04a1.2 1.2 0 0 1 0-2.08l4.025-2.321 1.416-5.346A1.2 1.2 0 0 1 14.4 2.4Z" clip-rule="evenodd"></path>
</svg>