<svg width="46" height="46" fill="currentColor" viewBox="0 0 24 24" xmlns="http://www.w3.org/2000/svg">
  <path d="M10.859 3.512c.36-1.105 1.923-1.105 2.282 0l1.284 3.95a1.2 1.2 0 0 0 1.14.829h4.155c1.162 0 1.645 1.488.705 2.172l-3.36 2.44a1.2 1.2 0 0 0-.437 1.342l1.284 3.95c.36 1.106-.906 2.026-1.848 1.342l-3.36-2.44a1.2 1.2 0 0 0-1.41 0l-3.36 2.44c-.94.684-2.205-.236-1.846-1.341l1.284-3.95a1.2 1.2 0 0 0-.437-1.342l-3.359-2.44c-.94-.684-.456-2.172.706-2.172h4.153a1.2 1.2 0 0 0 1.141-.828l1.284-3.95-.001-.002Z"></path>
</svg>