<svg width="46" height="46" fill="currentColor" viewBox="0 0 24 24" xmlns="http://www.w3.org/2000/svg">
  <path d="M4.448 2.752a1.2 1.2 0 0 0-1.696 1.696l8.305 8.307c.06.074.126.141.201.2l8.292 8.293a1.2 1.2 0 0 0 1.698-1.696l-.81-.81a10.801 10.801 0 0 0-.801-14.379A1.2 1.2 0 1 0 17.94 6.06a8.402 8.402 0 0 1 .788 10.972l-1.722-1.722a6.002 6.002 0 0 0-.763-7.553 1.201 1.201 0 1 0-1.699 1.699 3.6 3.6 0 0 1 .704 4.098l-2.39-2.39a1.1 1.1 0 0 0-.022-.022l-8.388-8.39Zm-.562 7.072a1.2 1.2 0 0 0-2.32-.619 10.8 10.8 0 0 0 2.797 10.432 1.2 1.2 0 1 0 1.697-1.698 8.397 8.397 0 0 1-2.174-8.115ZM8.88 13.8A1.2 1.2 0 1 0 6.804 15c.257.445.576.864.954 1.242a1.2 1.2 0 0 0 1.697-1.697 3.59 3.59 0 0 1-.574-.746l-.001.001Z"></path>
</svg>