<svg width="46" height="46" fill="currentColor" viewBox="0 0 24 24" xmlns="http://www.w3.org/2000/svg">
  <path fill-rule="evenodd" d="M6.06 4.363a1.2 1.2 0 0 1 0 1.697 8.4 8.4 0 0 0 0 11.88 1.2 1.2 0 1 1-1.697 1.697 10.8 10.8 0 0 1 0-15.274 1.2 1.2 0 0 1 1.697 0Zm11.88 0a1.2 1.2 0 0 1 1.697 0 10.8 10.8 0 0 1 0 15.274 1.2 1.2 0 1 1-1.697-1.697 8.4 8.4 0 0 0 0-11.88 1.2 1.2 0 0 1 0-1.697ZM9.455 7.757a1.2 1.2 0 0 1 0 1.697 3.6 3.6 0 0 0 0 5.091 1.2 1.2 0 1 1-1.698 1.697 6 6 0 0 1 0-8.484 1.2 1.2 0 0 1 1.698 0v-.001Zm5.09 0a1.2 1.2 0 0 1 1.698 0 6 6 0 0 1 0 8.486 1.2 1.2 0 1 1-1.698-1.698 3.6 3.6 0 0 0 0-5.09 1.2 1.2 0 0 1 0-1.698ZM12 10.8a1.2 1.2 0 0 1 1.2 1.2v.012a1.2 1.2 0 1 1-2.4 0V12a1.2 1.2 0 0 1 1.2-1.2Z" clip-rule="evenodd"></path>
</svg>