<svg width="46" height="46" fill="currentColor" viewBox="0 0 24 24" xmlns="http://www.w3.org/2000/svg">
  <path fill-rule="evenodd" d="M12 2.4a1.2 1.2 0 0 1 1.2 1.2v1.2a1.2 1.2 0 1 1-2.4 0V3.6A1.2 1.2 0 0 1 12 2.4Zm4.8 9.6a4.8 4.8 0 1 1-9.6 0 4.8 4.8 0 0 1 9.6 0Zm-.557 5.94.849.848a1.2 1.2 0 0 0 1.696-1.696l-.848-.849a1.2 1.2 0 0 0-1.697 1.697Zm2.544-12.728a1.2 1.2 0 0 1 0 1.696l-.847.849a1.2 1.2 0 1 1-1.697-1.697l.849-.848a1.2 1.2 0 0 1 1.696 0ZM20.4 13.2a1.2 1.2 0 1 0 0-2.4h-1.2a1.2 1.2 0 0 0 0 2.4h1.2ZM12 18a1.2 1.2 0 0 1 1.2 1.2v1.2a1.2 1.2 0 1 1-2.4 0v-1.2A1.2 1.2 0 0 1 12 18ZM6.06 7.757A1.2 1.2 0 1 0 7.758 6.06l-.85-.848a1.2 1.2 0 0 0-1.696 1.696l.848.849ZM7.757 17.94l-.849.848a1.2 1.2 0 0 1-1.696-1.696l.848-.849a1.2 1.2 0 0 1 1.697 1.697ZM4.8 13.2a1.2 1.2 0 1 0 0-2.4H3.6a1.2 1.2 0 0 0 0 2.4h1.2Z" clip-rule="evenodd"></path>
</svg>