<svg width="46" height="46" fill="currentColor" viewBox="0 0 24 24" xmlns="http://www.w3.org/2000/svg">
  <path fill-rule="evenodd" d="M21.6 12a9.6 9.6 0 1 1-19.2 0 9.6 9.6 0 0 1 19.2 0Zm-2.4 0c0 1.192-.29 2.315-.802 3.305l-1.828-1.83a4.797 4.797 0 0 0 .093-2.62l1.875-1.874c.424.918.662 1.939.662 3.019Zm-6.198 4.696 1.896 1.896c-.913.402-1.9.609-2.898.608a7.17 7.17 0 0 1-3.02-.662l1.875-1.875a4.807 4.807 0 0 0 2.147.033ZM7.39 13.34a4.803 4.803 0 0 1-.05-2.496l-.096.096L5.408 9.1A7.176 7.176 0 0 0 4.8 12c0 1.145.268 2.227.743 3.188L7.39 13.34ZM8.695 5.6A7.169 7.169 0 0 1 12 4.8c1.145 0 2.227.268 3.188.743L13.34 7.39a4.802 4.802 0 0 0-2.815.04L8.695 5.6ZM14.4 12a2.4 2.4 0 1 1-4.8 0 2.4 2.4 0 0 1 4.8 0Z" clip-rule="evenodd"></path>
</svg>