<svg width="46" height="46" fill="currentColor" viewBox="0 0 24 24" xmlns="http://www.w3.org/2000/svg">
  <path fill-rule="evenodd" d="M8.4 2.4a1.2 1.2 0 0 1 1.2 1.2v1.2h3.6a1.2 1.2 0 1 1 0 2.4h-1.706a22.64 22.64 0 0 1-2.07 5.736c.349.425.716.835 1.098 1.231a1.202 1.202 0 0 1-.886 2.034 1.2 1.2 0 0 1-.842-.367 25.24 25.24 0 0 1-.665-.72 22.918 22.918 0 0 1-3.729 4.28 1.2 1.2 0 0 1-1.6-1.788 20.501 20.501 0 0 0 3.756-4.48 22.789 22.789 0 0 1-1.785-2.992A1.2 1.2 0 1 1 6.92 9.066c.281.564.587 1.114.917 1.646.5-1.12.902-2.295 1.196-3.512H3.6a1.2 1.2 0 1 1 0-2.4h3.6V3.6a1.2 1.2 0 0 1 1.2-1.2Zm7.2 7.2a1.2 1.2 0 0 1 1.073.664l3.589 7.178a.95.95 0 0 1 .024.044l1.188 2.376a1.2 1.2 0 1 1-2.148 1.074L18.46 19.2h-5.717l-.869 1.736a1.2 1.2 0 1 1-2.146-1.072l1.188-2.376.023-.046 3.588-7.178A1.2 1.2 0 0 1 15.6 9.6Zm-1.658 7.2h3.316L15.6 13.483 13.942 16.8Z" clip-rule="evenodd"></path>
</svg>