<svg width="46" height="46" fill="currentColor" viewBox="0 0 24 24" xmlns="http://www.w3.org/2000/svg">
  <path d="M9.6 19.8a1.8 1.8 0 1 1-3.6 0 1.8 1.8 0 0 1 3.6 0Zm8.4 0a1.8 1.8 0 1 1-3.6 0 1.8 1.8 0 0 1 3.6 0Z"></path>
  <path d="M3.6 4.8A1.2 1.2 0 0 0 2.4 6v12a1.2 1.2 0 0 0 1.2 1.2h1.26a3 3 0 0 1 5.88 0H12a1.2 1.2 0 0 0 1.2-1.2V6A1.2 1.2 0 0 0 12 4.8H3.6Zm13.2 3.6a1.2 1.2 0 0 0-1.2 1.2v7.26a3 3 0 0 1 3.54 2.34h1.26a1.2 1.2 0 0 0 1.2-1.2v-6a1.2 1.2 0 0 0-.352-.848l-2.4-2.4A1.2 1.2 0 0 0 18 8.4h-1.2Z"></path>
</svg>