<svg width="46" height="46" fill="currentColor" viewBox="0 0 24 24" xmlns="http://www.w3.org/2000/svg">
  <path fill-rule="evenodd" d="M5.579 3.7a1.2 1.2 0 0 1 .617 1.58A16.74 16.74 0 0 0 4.8 12c0 2.392.5 4.663 1.397 6.72a1.2 1.2 0 0 1-2.199.96A19.14 19.14 0 0 1 2.4 12c0-2.729.57-5.328 1.598-7.68a1.2 1.2 0 0 1 1.58-.62Zm9.973 4.7a3.6 3.6 0 0 0-2.81 1.351l-.394.492-.133-.335A2.4 2.4 0 0 0 9.988 8.4H9.6a1.2 1.2 0 1 0 0 2.4h.388l.638 1.596-1.242 1.554a1.2 1.2 0 0 1-.937.45H8.4a1.2 1.2 0 0 0 0 2.4h.047a3.6 3.6 0 0 0 2.81-1.351l.394-.492.133.335a2.4 2.4 0 0 0 2.228 1.508h.388a1.2 1.2 0 1 0 0-2.4h-.388l-.638-1.596 1.242-1.554a1.201 1.201 0 0 1 .937-.45h.047a1.2 1.2 0 1 0 0-2.4h-.048Zm2.249-3.12a1.2 1.2 0 0 1 2.2-.96A19.14 19.14 0 0 1 21.6 12c0 2.729-.57 5.328-1.598 7.68a1.202 1.202 0 0 1-1.985.38 1.199 1.199 0 0 1-.214-1.34c.925-2.12 1.4-4.407 1.397-6.72 0-2.392-.5-4.663-1.398-6.72h-.001Z" clip-rule="evenodd"></path>
</svg>