<svg width="46" height="46" fill="currentColor" viewBox="0 0 24 24" xmlns="http://www.w3.org/2000/svg">
  <path d="M6 3.6A2.4 2.4 0 0 0 3.6 6v2.4A2.4 2.4 0 0 0 6 10.8h2.4a2.4 2.4 0 0 0 2.4-2.4V6a2.4 2.4 0 0 0-2.4-2.4H6Zm0 9.6a2.4 2.4 0 0 0-2.4 2.4V18A2.4 2.4 0 0 0 6 20.4h2.4a2.4 2.4 0 0 0 2.4-2.4v-2.4a2.4 2.4 0 0 0-2.4-2.4H6ZM13.2 6a2.4 2.4 0 0 1 2.4-2.4H18A2.4 2.4 0 0 1 20.4 6v2.4a2.4 2.4 0 0 1-2.4 2.4h-2.4a2.4 2.4 0 0 1-2.4-2.4V6Zm3.6 7.2a1.2 1.2 0 0 1 1.2 1.2v1.2h1.2a1.2 1.2 0 1 1 0 2.4H18v1.2a1.2 1.2 0 1 1-2.4 0V18h-1.2a1.2 1.2 0 0 1 0-2.4h1.2v-1.2a1.2 1.2 0 0 1 1.2-1.2Z"></path>
</svg>