<svg width="46" height="46" fill="currentColor" viewBox="0 0 24 24" xmlns="http://www.w3.org/2000/svg">
  <path fill-rule="evenodd" d="M11.26 3.691A1.2 1.2 0 0 1 12 4.8v14.4a1.2 1.2 0 0 1-2.048.848L5.503 15.6H2.4a1.2 1.2 0 0 1-1.2-1.2V9.6a1.2 1.2 0 0 1 1.2-1.2h3.103l4.449-4.448a1.2 1.2 0 0 1 1.308-.26Zm3.492 5.06a1.2 1.2 0 0 1 1.696 0L18 10.304l1.552-1.551a1.2 1.2 0 1 1 1.696 1.696L19.697 12l1.551 1.552a1.2 1.2 0 0 1-1.696 1.696L18 13.697l-1.552 1.551a1.2 1.2 0 0 1-1.696-1.696L16.303 12l-1.551-1.552a1.2 1.2 0 0 1 0-1.696Z" clip-rule="evenodd"></path>
</svg>