<svg width="46" height="46" fill="currentColor" viewBox="0 0 24 24" xmlns="http://www.w3.org/2000/svg">
  <path fill-rule="evenodd" d="M21.334 9.866c-5.156-5.155-13.512-5.155-18.668 0A1.2 1.2 0 0 1 .97 8.17c6.09-6.093 15.97-6.093 22.06 0a1.2 1.2 0 0 1-1.696 1.696ZM17.94 13.26a8.4 8.4 0 0 0-11.88 0 1.2 1.2 0 0 1-1.697-1.697 10.801 10.801 0 0 1 15.274 0 1.2 1.2 0 0 1-1.697 1.697Zm-3.396 3.396a3.6 3.6 0 0 0-5.09 0 1.2 1.2 0 1 1-1.698-1.698 6 6 0 0 1 8.486 0 1.2 1.2 0 1 1-1.698 1.698ZM10.8 19.2A1.2 1.2 0 0 1 12 18h.012a1.2 1.2 0 0 1 0 2.4H12a1.2 1.2 0 0 1-1.2-1.2Z" clip-rule="evenodd"></path>
</svg>