<svg width="46" height="46" fill="none" stroke="currentColor" stroke-linecap="round" stroke-linejoin="round" stroke-width="2" viewBox="0 0 24 24" xmlns="http://www.w3.org/2000/svg">
  <path d="m12 14 9-5-9-5-9 5 9 5Z"></path>
  <path d="m12 14 6.16-3.422c.81 2.058 1.04 4.3.665 6.479A11.952 11.952 0 0 0 12 20.055a11.952 11.952 0 0 0-6.824-2.998 12.078 12.078 0 0 1 .665-6.479L12 14Z"></path>
  <path d="m12 14 9-5-9-5-9 5 9 5Zm0 0 6.16-3.422c.81 2.058 1.04 4.3.665 6.479A11.952 11.952 0 0 0 12 20.055a11.952 11.952 0 0 0-6.824-2.998 12.078 12.078 0 0 1 .665-6.479L12 14Zm-4 6v-7.5l4-2.222"></path>
</svg>