<svg width="46" height="46" fill="none" stroke="currentColor" stroke-linecap="round" stroke-linejoin="round" stroke-width="2" viewBox="0 0 24 24" xmlns="http://www.w3.org/2000/svg">
  <path d="M18 18v2"></path>
  <path d="M18 14V4"></path>
  <path d="M19.414 17.414a2 2 0 1 1-2.828-2.828 2 2 0 0 1 2.828 2.828Z"></path>
  <path d="M12 10v10"></path>
  <path d="M12 6V4"></path>
  <path d="M10.586 6.586a2 2 0 1 1 2.828 2.828 2 2 0 0 1-2.828-2.828Z"></path>
  <path d="M6 18v2"></path>
  <path d="M6 14V4"></path>
  <path d="M7.414 17.414a2 2 0 1 1-2.828-2.828 2 2 0 0 1 2.828 2.828Z"></path>
</svg>