<svg width="46" height="46" fill="none" stroke="currentColor" stroke-linecap="round" stroke-linejoin="round" stroke-width="2" viewBox="0 0 24 24" xmlns="http://www.w3.org/2000/svg">
  <path d="M21 15.546c-.523 0-1.046.151-1.5.454a2.704 2.704 0 0 1-3 0 2.704 2.704 0 0 0-3 0 2.704 2.704 0 0 1-3 0 2.704 2.704 0 0 0-3 0 2.704 2.704 0 0 1-3 0 2.7 2.7 0 0 0-1.5-.454"></path>
  <path d="M9 6v2"></path>
  <path d="M12 6v2"></path>
  <path d="M15 6v2"></path>
  <path d="M9 3h.01"></path>
  <path d="M12 3h.01"></path>
  <path d="M15 3h.01"></path>
  <path d="M21 21v-7a2 2 0 0 0-2-2H5a2 2 0 0 0-2 2v7h18Z"></path>
  <path d="M18 10v2H6v-2a2 2 0 0 1 2-2h8a2 2 0 0 1 2 2Z"></path>
</svg>