<svg width="46" height="46" fill="none" stroke="currentColor" stroke-linecap="round" stroke-linejoin="round" stroke-width="2" viewBox="0 0 24 24" xmlns="http://www.w3.org/2000/svg">
  <path d="M13.675 4.317c-.426-1.756-2.924-1.756-3.35 0a1.723 1.723 0 0 1-2.572 1.065c-1.544-.94-3.31.827-2.37 2.37a1.724 1.724 0 0 1-1.066 2.573c-1.756.426-1.756 2.924 0 3.35a1.725 1.725 0 0 1 1.065 2.572c-.94 1.544.827 3.31 2.37 2.37a1.724 1.724 0 0 1 2.573 1.066c.426 1.756 2.924 1.756 3.35 0a1.725 1.725 0 0 1 2.572-1.065c1.544.94 3.31-.827 2.37-2.37a1.725 1.725 0 0 1 1.066-2.573c1.756-.426 1.756-2.924 0-3.35a1.724 1.724 0 0 1-1.065-2.572c.94-1.544-.827-3.31-2.37-2.37a1.724 1.724 0 0 1-2.573-1.066Z"></path>
  <path d="M14.121 14.121A3 3 0 1 0 9.88 9.88a3 3 0 0 0 4.242 4.242Z"></path>
</svg>