<svg width="46" height="46" fill="none" stroke="currentColor" stroke-linecap="round" stroke-linejoin="round" stroke-width="2" viewBox="0 0 24 24" xmlns="http://www.w3.org/2000/svg">
  <path d="M13.875 18.825C13.257 18.942 12.63 19 12 19c-4.478 0-8.268-2.943-9.543-7A9.97 9.97 0 0 1 4.02 8.97"></path>
  <path d="M9.878 9.879a3 3 0 0 1 4.243 4.243M9.878 9.879l4.243 4.243M9.878 9.879l4.242 4.24m.001.003 3.291 3.29"></path>
  <path d="M9.88 9.88 6.59 6.59m0 0L3 3m3.59 3.59A9.953 9.953 0 0 1 12 5c4.478 0 8.268 2.943 9.543 7a10.025 10.025 0 0 1-4.132 5.411M6.59 6.59l10.821 10.821m0 0L21 21"></path>
</svg>