<svg width="46" height="46" fill="none" stroke="currentColor" stroke-linecap="round" stroke-linejoin="round" stroke-width="2" viewBox="0 0 24 24" xmlns="http://www.w3.org/2000/svg">
  <path d="M12 11c0 3.517-1.009 6.799-2.753 9.571"></path>
  <path d="m5.807 18.531.054-.09A13.916 13.916 0 0 0 8 11a4 4 0 0 1 8 0c0 1.017-.07 2.019-.203 3"></path>
  <path d="M13.679 20.844A21.879 21.879 0 0 0 15.17 17"></path>
  <path d="M19.01 18.132c.645-2.266.99-4.66.99-7.132A8 8 0 0 0 8 4.07"></path>
  <path d="M3 15.364c.64-1.319 1-2.8 1-4.364 0-1.457.39-2.823 1.07-4"></path>
</svg>