<svg width="46" height="46" fill="none" stroke="currentColor" stroke-linecap="round" stroke-linejoin="round" stroke-width="2" viewBox="0 0 24 24" xmlns="http://www.w3.org/2000/svg">
  <path d="M10 6H5a2 2 0 0 0-2 2v9a2 2 0 0 0 2 2h14a2 2 0 0 0 2-2V8a2 2 0 0 0-2-2h-5"></path>
  <path d="M10.414 13.414a2 2 0 1 1-2.828-2.828 2 2 0 0 1 2.828 2.828Z"></path>
  <path d="M11.83 16a3.004 3.004 0 0 0-5.66 0"></path>
  <path d="M15 11h3"></path>
  <path d="M15 15h2"></path>
  <path d="M10 5v1a2 2 0 1 0 4 0V5a2 2 0 1 0-4 0Z"></path>
</svg>