<svg width="46" height="46" fill="none" stroke="currentColor" stroke-linecap="round" stroke-linejoin="round" stroke-width="2" viewBox="0 0 24 24" xmlns="http://www.w3.org/2000/svg">
  <path d="M11.586 2.586A2 2 0 0 0 11 4v1a1 1 0 0 1-1 1H7a1 1 0 0 0-1 1v3a1 1 0 0 1-1 1H4a2 2 0 1 0 0 4h1a1 1 0 0 1 1 1v3a1 1 0 0 0 1 1h3a1 1 0 0 0 1-1v-1a2 2 0 0 1 4 0v1a1 1 0 0 0 1 1h3a1 1 0 0 0 1-1v-3a1 1 0 0 0-1-1h-1a2 2 0 0 1 0-4h1a1 1 0 0 0 1-1V7a1 1 0 0 0-1-1h-3a1 1 0 0 1-1-1V4a2 2 0 0 0-3.414-1.414Z"></path>
</svg>