<svg width="46" height="46" fill="none" stroke="currentColor" stroke-linecap="round" stroke-linejoin="round" stroke-width="2" viewBox="0 0 24 24" xmlns="http://www.w3.org/2000/svg">
  <path d="M12.707 12.707a1 1 0 1 0-1.414-1.414"></path>
  <path d="M8.464 15.536a4.978 4.978 0 0 1-1.414-2.83"></path>
  <path d="M5.636 18.364a9 9 0 0 1-2.167-9.238"></path>
  <path d="M18.364 5.636a9 9 0 0 1 0 12.728"></path>
  <path d="M15.536 8.464a5 5 0 0 1 0 7.072"></path>
  <path d="m15.535 15.535 2.829 2.829L21 21m-5.464-5.464-2.829-2.829-1.414-1.414L3 3"></path>
</svg>